<svg xmlns="http://www.w3.org/2000/svg" xml:space="preserve" width="1241.2" height="1755.1" overflow="visible" version="1.0"><path fill="#FFF" d="m1048.6 133-7.7 3.9-1.6 13.4-7.7.4-.8 12.5-2.8.9-1.2-7.7-6.5 1.6-.4-4-7.6 1.2-1.2-4-5.3.8-1.2 3.2-4.8 1.6-1.7-5.6-8 4.4-1.6 11.7-3.3.4-1.2 4.8-3.2.4-9.7 17-2 13.3-5.2-.4-.8 4h-2.5v10.1l-5.2.8.4 6.4-11.3 1.2 6.1 11.7-12.5 8.9-2.5-2-3.2.8-4.4 4.4-3.6-1.6-8.1 4.9 4.4 4-4.4 5.2-10.5 1.7 4.4 4-3.2 4.3-4-4.4-5.7-2.8-9.2 13.3 4.4 3.3-7.3 9.6-7.6-4.4-6.9-4.8-4.4 8-3.2 3.2-6.5-3.6-8.5 10.5-4 5.6-5.6-4.4-9.3 16.1-4.8 4.5-2.5 3.6.4 6.1-2 4.4-3.6-2.8-4.6-.4-9.5 2.4-5.3.4-2.4-2.8h-2.4l-4-2.5-4.9-1.6-4.8.4-3.6 3.7-3.7-.4-6 2.4-7.7-5.3-.4-3.6-13.7-6-9.7 1.6-9.7 4.4-1.6-6.4-6.4 3.2-7.3 2.4-5.2-.8.4 4-3.2-2-3.6 3.6.8.4-.8-.4-8.4-5.1-2.1.3-9.3-6.4-9.3-8.9-5.2-8.9-4-1.6-18.4-21.5-.2.2-17.3-3.7h-.1l-20.1-5.2-4 2.4-8.5-3.6-3.2 5.2-3.2-1.2-5.3 10.5.4 4-4.4 6.5-.8 3.2-4.5.8-.4-.4-3.6-3.3-6.5-2.8-10.9-3.2-8 20.2-4.5.4-.7 4.8.7 5.2-3.6 4.1-2.4 5.6-5.6 5.6-13.8-13.6-4.4 4.4-6.9 2.4-6.4-3.2-16-14.5-5.8 1.6-2.8-1.6-.8-4-4.5.8-4.8 4-3.2-5.2-6.5-7.3-5.2-2-20.9 16.1-4.1 14.1 9.7 22.6-6.4 2 8.8 1.2 17 .8 26.2 8.9 14.5 4.4 11.6 1.6 18.2 7.3 6.8 4.8 5.3 6.5 3.6 19.7-.4 6.5-2.4 8.9-3.3 8.8-4.4 7.3-10.1 14.1-6 7.7-9.7 6.8-3.9 8.9h-.1l-14.6 8.3 6.1 11.1.4 3.2 4.9 6-1.2 2 6.4 10.9-3.2 11.3 1.5 2.9v.1l37.9-2.6 37.2-1.2h31.8l25.5-.8 14.9-1.2 9.7 1.2 9.2 3.2 11.7 9.7 4.9 14.1 2.4 16.6v15.7l2.8 6 5.6 6.1 7.7 3.6 8.1 2.4 4 8.5 3.2 4.8 3.7 23.8v25l3.6 27.1 1.9 22.1 7-1.6 23.8 3.2-.4-8.4h12.5l.9-4.2 1.1-4.7 5.2 1.6h13.3l-2.8 4.4 5.2-.4 5.9 2.5 2.6-3.7-.8-2 7.7-5.6 9.2-4.1 10.5-2 19-2-2-12.9 6-2.4 3.2 1.6 8.1 1.6 5.6-2 10.1 2 2.3-4.5.1-.3-.1.3 12.2 3.3 9.7-2.4.4 6.4 4.5-3.6h4.8l3-1.1 1.8 4.7-4.8 1.6 4.8 11.3 4.9-3.2 2.3 2.4 7.3-5.2 4.8.4 3.7 7.2 3.2 4.1v2.4l8.5 3.6 4 2.4.1 5.3v.1l5-3.5.9-.6-.9.6 7.4 11.1 14.1-3.7 9.3 19 13-5.5 3.1 4.7v4.4l4.5 6.5 4.4 3.9 4.4 1.3-2.8 2-7.7 1.1 3.3 7 5.2 1.2 8.1 4.8 8.4-3.2.4 6 4.5-1.6 7.2 7.7 2.9-.4 3.2 5.6 4.4-2.4 2.4 6.5 6.5 3.6.8 8.5 18.1 8.8 8.9 2.1-5.6 4-3.8 14.6 2.6 4.7-.4 6.5 4.8 2.4 6.9 2v3.3l8.4 2.8 5.7 5.2 11.3 4.1 11.6 2 2.9 4.8.1.1 4.3-2.1 5.2-5.7 1.3-7.2-2.9-26.6-.4-8.5-6.8-7.7 2-10.4-4-4.1-3.3 4.5-5.2 4-2.4-6.5-1.2-6.4 3.2-23-3.2-2.8-1.2-6.1-6.5-.4 1.2-4-3.2-14.1-4-1.6-.9-7.3-2.8-8-3.6-5.7-.4-4-3.2-.4v-4.1l-2.9-2.8.1-3.2 7.6-4 5.7-2.1 7.6.4-4-12.9 4.8 1.3 6.5-3.3 2.4-4.4 1.2-14.9-6-3.3-10.1.4-11.7 2.5-6-10.5-6.5 3.6-5.2 1.9-.1.1-.2.2.3-.3.7-4.3 4.9-7.3-1.6-2.4-6.1-7.2 2-3.3-.8-4.8 4.1-3.2 1.2-5.7 3.2-4.4v-4.4l-5.6-5.3-8.1-3.6-3.2 1.2-4.9-6.9-4.8-1.2.4-3.6-2.5-1.8-.3 1 .3-1 1.7-5.1 3.6-1.6-1.6-5.2 4.8-3.2 4.1 1.6.8-4.1 5.2-2 7.3 2 2-4.4 2.4-3.2 2.8 2 1.6-2.8 6.1 1.2 3.6-4.5 5.7-.8 6.8-4 4.5 4.4 3.2-1.2-.8-7.2h4l-3.2-6.9 5.6-2-5.2-5.6-5.7-7.3-.8-4.8 2.5-4.1 4.4-2.8 4.8-.4.4-2.8 4.5-2 2-3.1-8.5-6.2 4.5-8.9h-3.3l3.3-6.8-.9-7.3-2.4-4.8-1.6-10.5 2-8.5 6.9-8.5 4.8-3.2h4.1l3.6-3.6v-3.2l6.4-2 5.3-3.7 1.6-7.2-2-4.1-.8-8.4 3.2-10.5-4-1.6-8.5.4-2-2.9-3.4.5-5.5-23.4.9-6.1-5.3-8.5-.4-4.4-3.6-6.4-4.1-10.5-4.4-4.8h-5.6l-12.1-19-.8-4.4-8.5-9.7-5.2-8.1-12.1-22.5-13.4-18.2 4.5-2.8 18.9.8 16.2 4-4.1-18.9 6.1-2 .8-3.3 3.6-.8.4-4.8-4-10.5 3.6-2.8-7.6-14.5-4.1-17.8h-10.1l-.8-3.2 3.7-1.6-4.5-8.5-6.5-2.4 4.9-5.2h-14.9v-4.5l6.8 1.6 5.3-1.2 3.2-1.6-.8-6.4-3.3-6.5h-7.6l-.8-4-14.9 1.2z"/><path fill="#FFF" d="m671.1 537.4-11.7-9.7-9.2-3.2-9.7-1.2-14.9 1.2-25.5.8h-31.8l-37.2 1.2-37.9 2.6.1.2-.1-.2v-.1l-4.3 4.4-17.8 8-27.4 17.4-8.9 8.5-8.8 1.2-12.5 8.8-6.9 8.5-6.5 5.6-1.2 15.8-7.6 3.2-42-8.9-1.6 2-6 19-3.2 1.2-20.8-8-1 2-4.4 5.2-6.1 8.9-19.8 8-8.4 13.7-2.4 7.3-.8 4.8-3.5 10.6-3 10.8-.8 7.3.9 3.4 19.7 7.5 16.5 4.8 5.6 7.3 19.4 9.2 4.4-.8-2.4 9.3.4 14.1 4.8 9.3 4.1 6 16.5 2.9 12.9-1.7 5.3 4.5-7.3 6 2 12.5h10.9l8.5-6.8 6.8-8.9 24.3 14.5 6.8 5.4 22.6 5.9 28.6 10.6 43.1 14.4-1.6 3.6L534 829l8.9.4 6.4 3.2 2.8-2 4.9.8 5.6-4.5 5.3-1.2 5.2 1.2 3.7 4.1 1.2 2.4 9.6-2 9.7-.8 22.2-11.7 14.9-7.3 4.9-4.4 10-5.7 9.3-4.4 9.3-7.3 9.7-3.6 9.7-2.8 4.8 2.8 7.7 8.9 9.2 5.2 8.9-.8 4.8.8 4.5 1.6 5.3 1.2 8-1.6 12.1 3.3.8 2.8 8.1 8.9 6.4 2 1.2 4 7.3 2 14.9-.8 27.9 2.8 7.7-6 3.9-8.9 3.6-10.5 1.2-10.1-4-2 1.2-8.4 2.8-6.9 8.1-7.3 1.6-7.6-6.4-9.3-4.1-7.2-8.8-6.9-15-3.6-18.1-3.1-4.2-3.6-11.7-.6-.8 5.5-5.2-.4-2.9 13.3-22.3-2.3-7.3.2-6.1-10.6-6 4 2.8 8.1 3.6 18.1-9.7 6.5-8.4 2-7.3-1.2 2.4-4.5 2.9-9.7 4-20.5 2.4-18.6-.1-1.2-1.9-22.1-3.6-27.1v-25l-3.7-23.8-3.2-4.8-4-8.5-8.1-2.4-7.7-3.6-5.6-6.1-2.8-6v-15.7l-2.4-16.6z"/><path fill="#FFF" d="m729.2 742.3-2.8-8.1 6-4 6.1 10.6 7.3-.2 22.3 2.3 2.9-13.3 5.2.4.8-5.5 11.7.6 4.2 3.6 18.1 3.1 15 3.6 8.8 6.9 4.1 7.2 6.4 9.3-1.6 7.6-8.1 7.3-2.8 6.9-1.2 8.4 4 2-1.2 10.1-3.6 10.5-3.9 8.9-7.7 6-27.9-2.8-14.9.8-7.3-2-1.2-4-6.4-2-8.1-8.9-.8-2.8-12.1-3.3-8 1.6-5.3-1.2-4.5-1.6-4.8-.8-8.9.8-9.2-5.2-7.7-8.9-4.8-2.8-9.7 2.8-9.7 3.6-9.3 7.3-9.3 4.4-10 5.7-4.9 4.4-14.9 7.3-22.2 11.7-9.7.8-9.6 2-1.2-2.4-3.7-4.1-5.2-1.2-5.3 1.2-5.6 4.5-4.9-.8-2.8 2-6.4-3.2-8.9-.4-13.7-1.7-1.2 2.9-7.3 12.9-5.6 10h-10.5l-5.4-.4-2.7 5.7.9 8.1 5.6 1.6h4l4.1.8 2.4-10.9 3.6 1.6-3.6 14.1-3.2 9.3-5.7 23.4-4.8 24.6 13.3 5.6-.8 14.1 2.3 3.9-2.7 7.8 5.7 2-3.3 6.4-5.6 2.5-3.6 10.5-3.7 8.8-6.8 8.1-2.4 5.6-3.3 4.9.8 8.8-3.6 4.9v5.2l-11.7 17 6.9 3.6 1.2 5.2-4.1 2.5 4.9 3.6 5.2.4 11.3 5.2 2.4 3.3 4.9 2.4 6-8.5-4.4-7.3 10.1 5.7 4.8 6.4 10.4 9.3 5.3 8.1 3.7 3.6-2.9 4 8.9 3.7 4.8 3.2 5.1-1.2 2.2-4h6.4l14.5 10.8 6 1.3 5.3-15.8 8.1-4 1.6-8.5 14.9.2 1.3 39.3.3 26.7 1.3 26.6 7.2.4 6.5 2 1.6-3.6 11.3 2 6.9 3.6 2.8-8.1 4.4 2.9.8-2.1 2.4.9 4.9-6.9 13.7 4.5 4.4-12.2 4.4.4.8-6.8 6.5.4 7.2 1.7 10.5-.5-.4 10.5-2 4h6.5l.4 2.8 5.2 1.2-6.5 8.5 3.1 2.6 12.7-10.2 10.1-6.1 10.5-3.6 7.6-.4 18.5-5.3 2.9 3.7 2.4.4 3.2-2.9 2 2.1-2 4.8-2.8 3.2.4 3.7 2.4.4.8 2.8 4.9 8.8 10.8 13.4 2.9-4.9-2.4-1.2-2.1-6-4-2.5 1.6-3.6-2.8-2.4 2.4-6.8.4-6.1 4.5 6.8 3.2-2 .4 3.7 5.6.4.4-3.3 4.5.8.8-3.2-11.3-2.8.8-2.8h2.8l1.2-3.3 7.3 3.3 6.8-1.2 1.2-7.3 4.9-.8 4.8-4 1.2-7.2 4.9 1.1 1.6 8.9 11.7-2.9 17.7-1.1 28.2-14.2 22.2-10.4 9.7-3.3 3.6 2.4-.8 7.7 4.9-2 1.2-3.9.4-1.3-.4 1.3 13.7 20 2.8 25.4v13.8l3.6 6-3.6 2 4.8 2 6.5 9.3 2.4 8.9 8.1.8.8 6.8 5.6-.3 2 9.2-8 .8 4.8 4 2 7.7 4.5 7.7 10.5-4.9 1.6 14.1 8.8-7.2 2.5-4.1 7.2 6.1-3.6 6 2.4 7.7 7.3-2.4-.4 5.2-4.5 2 9.3 3.7 5.2 5.9-.4 2.5-3.6 2.8 1.6 2.9 11.7 2 2.8-3.6 11.7-2.9.4-5.2 10.9-.4v-2.8l12.9-.4v-6.1l-2-4 13.3-5.7 13.3-3.6-17.7-11.7-9.3-9.7v-4.8l-4.9-8.8v-4.9h.4l2.5-8.1 4.4-1.2.8-8.4 9.3 3.6 4.4-17.4-.8-12.1h3.6l.8-6 5.7 4 2-9.2 4-8.5 8.9-8.1 2.4-1.2 2-6.8 5.7-2.1 1.6 2.5 4-3-2-13.6 5.7-2.8-10.5-4-.4-4.5-4.1-4.4-11.3-6.9 5.3-7.6 8.1-4.4-.9-3.3 3.3-5.2 9.6 2 4.9-9.3 4.8-2.4 5.7-10.5-6.9-6.4-4.3-19.4-.9-.4.9.4 10.4 4 3.6 2.5 18.1-6.5.8-4 6.9 1.6h.3l3-4v-4.9l-5.7-6-.4-5.7-2.4-4.8v-9.2l-5.7-1.7-4.4-4-1.2-6.4-4.5-1.7-1.6 3.3-7.2-1.6-7.7 5.6-6.9 1.2-7.6 4.5-2.8-1.3-4.5 1.3-5.2-8.9-1.2-6.5-2.4-5.2.8-5.7 6 .4 1.2-7.2-1.6-9.7 4.4-2 3.7-.4 2-4 6 .8-2-12.9 6.5-2.5-2.4-2.8 5.2-4.8 2.8-7.3 1.2-6.8-12.5-8.1-6.7-.8.7-7.3 3.2-1.2 8.1-20.1-7.7-3.7-4.3-3.1v.1l-.1-.2-2.9-4.8-11.6-2-11.3-4.1-5.7-5.2-8.4-2.8V839l-6.9-2-4.8-2.4.4-6.5-2.6-4.7 3.8-14.6 5.6-4-8.9-2.1-18.1-8.8-.8-8.5-6.5-3.6-2.4-6.5-4.4 2.4-3.2-5.6-2.9.4-7.2-7.7-4.5 1.6-.4-6-8.4 3.2-8.1-4.8-5.2-1.2-3.3-7 7.7-1.1 2.8-2-4.4-1.3-4.4-3.9-4.5-6.5v-4.4l-3.1-4.7-13 5.5-9.3-19-14.1 3.7-7.4-11.1-5 3.5-.2.1.2-.2-.1-5.3-4-2.4-8.5-3.6v-2.4l-3.2-4.1-3.7-7.2-4.8-.4-7.3 5.2-.4.2.4-.2-2.3-2.4-4.9 3.2-4.8-11.3 4.8-1.6-1.8-4.7-3 1.1H899l-4.5 3.6-.4-6.4-9.7 2.4-12.2-3.3-2.3 4.5-10.1-2-5.6 2-8.1-1.6-3.2-1.6-6 2.4 2 12.9-19 2-10.5 2-9.2 4.1-7.7 5.6.8 2-2.6 3.7-5.9-2.5-5.2.4 2.8-4.4h-13.3l-5.2-1.6-1.1 4.7-.9 4.2h-12.5l.4 8.4-23.8-3.2-7 1.6.1 1.2-2.4 18.6-4 20.5-2.9 9.7-2.4 4.5 7.3 1.2 8.4-2 9.7-6.5z"/><path fill="#FFF" d="m360.6 372.5-8 4-6.9 5.7-3.6 5.6-12.5 7.3-7.3 4.8-6.8 6.9-6.5 7.6-10.1 5.3-7.6 6.4-7.6 5.7-9.3 10.9-10.5 9.2-7.7 8.1-14.1 12.5.4 4.8-13.3 12.1-7.6 5.7-9.7 4-9.3 6.1-8.5 8.8-13.7 5.3-11.7 3.6-10.1 4.8-19.8 18.2-4.3 6.8-2.1 8.1-7.6 10.1-.8 4.8 1.6 11.3-.8 6.1-2.8 3.6-9.7 4.4-6.9 14.1-6.4 15.4-9.7 10.8 1.2 2.5 8.9.8 10.9-5.3.8 3.7-2.9 2.8-3.6 6-2 6.5 3.2 3.2-5.2 3.6.4 4.1-5.7 1.6-2.4 4.8 4.5 1.6-2.9 3.7v4.8l12.5 17.7 8.5 8.9.4 6.5-6.8-.8-5.3-3.3h-5.2l-4.5 4.9-4.4 10.5-5.2 8.4-.4 10.1.8 6.9-.4 5.6 5.6 25.8 7.3 25-.8 5.7-1.3 4.8 2.5 4.8 3.6 3.7 2.4-.4 7.3 6 9.6 6.5 10.9 1.6 4.5-4.1 2.4-8.8 12.8 2 5.7 4.8-3.2 4.9 1.6 7.6 7.3 4.5 8 14.5-4.4 2 2 13.7 7.3-2 4.8 1.6-9 12.4 30.8-.3 3.6-3.7 12.3.4.1-.1 4.2 3.8-.4 4.4 2.8 3.6 4.4 1.2 4.9 2.9 4 9.2L224 943l2.8.4 7.7-11.7 3.6-1.2 18.1 10.1 3.7-2.8 6 .4 7.7 15.4-.4.4-6.5 2.4 1.6 8 3.8 8.9 3.1.4 2.8 5.2 5.7 2.4-2.1 8.9 4.5 1.2 2.3 5.7-1.5 5.2 1.2 7.3 13.3-2.5 3.2 7.3 5.3 5.2 7.6 2.1 4.1 6.8 6.4-4.8 3.6 4.4 9.7-3.2 8.9 2.4 3.2 2.4h6.1l10-8 3.3 1.6-.8 4.4h6l-4.8 11.7 6-.8 9.8 4.7-1.7 3.8 6 5.6 4.5 2.4 2.3 6.1v.1l11.4 13.2-2 5.2 2 3.2-6.5 2.1-13.7 10.4-.8 4.1h-3.7l.9 8.9 5.6 13.3 4.9 6.8 3.6-3.6 30.2-12.1 20.2-12.9-2.9 16.1 6.1 24.2 10.9-.4 14.1-2.7 3.2-13.4 5.7-11.3-1.7-3.2-8 4-3.2-4.4 8.4-9.3-6-8.9 7.6-4 7.7-8.1-3.2-1.2 2.4-6.4-2.4-3.3-11.3-5.2-5.2-.4-4.9-3.6 4.1-2.5-1.2-5.2-6.9-3.6 11.7-17v-5.2l3.6-4.9-.8-8.8 3.3-4.9 2.4-5.6 6.8-8.1 3.7-8.8 3.6-10.5 5.6-2.5 3.3-6.4-5.7-2 2.7-7.8-2.3-3.9.8-14.1-13.3-5.6 4.8-24.6 5.7-23.4 3.2-9.3 3.6-14.1-3.6-1.6-2.4 10.9-4.1-.8h-4l-5.6-1.6-.9-8.1 2.7-5.7 5.4.4h10.5l5.6-10 7.3-12.9 1.2-2.9 1.6-3.6-43.1-14.4-28.6-10.6-22.6-5.9-6.8-5.4-24.3-14.5-6.8 8.9-8.5 6.8h-10.9l-2-12.5 7.3-6-5.3-4.5-12.9 1.7-16.5-2.9-4.1-6-4.8-9.3-.4-14.1 2.4-9.3-4.4.8-19.4-9.2-5.6-7.3-16.5-4.8-19.7-7.5-.9-3.4.8-7.3 3-10.8 3.5-10.6.8-4.8 2.4-7.3 8.4-13.7 19.8-8 6.1-8.9 4.4-5.2 1-2 20.8 8 3.2-1.2 6-19 1.6-2 42 8.9 7.6-3.2 1.2-15.8 6.5-5.6 6.9-8.5 12.5-8.8 8.8-1.2 8.9-8.5 27.4-17.4 17.8-8 4.3-4.4-1.5-2.9 3.2-11.3-6.4-10.9 1.2-2-4.9-6-.4-3.2-6.1-11.1 14.6-8.3h.1l3.9-8.9 9.7-6.8 6-7.7 10.1-14.1 4.4-7.3 3.3-8.8 2.4-8.9.4-6.5-3.6-19.7-5.3-6.5-6.8-4.8-18.2-7.3-11.6-1.6-14.5-4.4-26.2-8.9-17-.8-8.8-1.2-19.8 4.4-10.9 5.3-17.4 5.6z"/><path fill="none" stroke="#333" stroke-linecap="round" stroke-linejoin="round" stroke-width="2" d="m1069.5 129.8-14.9 1.2-6 2-7.7 3.9-1.6 13.4-7.7.4-.8 12.5-2.8.9-1.2-7.7-6.5 1.6-.4-4-7.6 1.2-1.2-4-5.3.8-1.2 3.2-4.8 1.6-1.7-5.6-8 4.4-1.6 11.7-3.3.4-1.2 4.8-3.2.4-9.7 17-2 13.3-5.2-.4-.8 4h-2.5v10.1l-5.2.8.4 6.4-11.3 1.2 6.1 11.7-12.5 8.9-2.5-2-3.2.8-4.4 4.4-3.6-1.6-8.1 4.9 4.4 4-4.4 5.2-10.5 1.7 4.4 4-3.2 4.3-4-4.4-5.7-2.8-9.2 13.3 4.4 3.3-7.3 9.6-7.6-4.4-6.9-4.8-4.4 8-3.2 3.2-6.5-3.6-8.5 10.5-4 5.6-5.6-4.4-9.3 16.1-4.8 4.5-2.5 3.6.4 6.1-2 4.4-3.6-2.8-4.6-.4-9.5 2.4-5.3.4-2.4-2.8h-2.4l-4-2.5-4.9-1.6-4.8.4-3.6 3.7-3.7-.4-6 2.4-7.7-5.3-.4-3.6-13.7-6-9.7 1.6-9.7 4.4-1.6-6.4-6.4 3.2-7.3 2.4-5.2-.8.4 4-3.2-2-3.6 3.6M1069.5 129.8h.1zM1132.4 503.7l-8.5-6.2 4.5-8.9h-3.3l3.3-6.8-.9-7.3-2.4-4.8-1.6-10.5 2-8.5 6.9-8.5 4.8-3.2h4.1l3.6-3.6v-3.2l6.4-2 5.3-3.7 1.6-7.2-2-4.1-.8-8.4 3.2-10.5-4-1.6-8.5.4-2-2.9-3.4.5-5.5-23.4.9-6.1-5.3-8.5-.4-4.4-3.6-6.4-4.1-10.5-4.4-4.8h-5.6l-12.1-19-.8-4.4-8.5-9.7-5.2-8.1-12.1-22.5-13.4-18.2 4.5-2.8 18.9.8 16.2 4-4.1-18.9 6.1-2 .8-3.3 3.6-.8.4-4.8-4-10.5 3.6-2.8-7.6-14.5-4.1-17.8h-10.1l-.8-3.2 3.7-1.6-4.5-8.5-6.5-2.4 4.9-5.2h-14.9v-4.5l6.8 1.6 5.3-1.2 3.2-1.6-.8-6.4-3.3-6.5h-7.6l-.8-4M698.2 329.7l-.8-.4"/><path fill="none" stroke="#333" stroke-linecap="round" stroke-linejoin="round" stroke-width="2" d="m697.4 329.3-8.4-5.1-2.1.3-9.3-6.4-9.3-8.9-5.2-8.9-4-1.6-18.4-21.5-.2.2-17.3-3.7h-.1l-20.1-5.2-4 2.4-8.5-3.6-3.2 5.2-3.2-1.2-5.3 10.5.4 4-4.4 6.5-.8 3.2-4.5.8-.4-.4-3.6-3.3-6.5-2.8-10.9-3.2-8 20.2-4.5.4-.7 4.8.7 5.2-3.6 4.1-2.4 5.6-5.6 5.6-13.8-13.6-4.4 4.4-6.9 2.4-6.4-3.2-16-14.5M719 713.2l-1.9-22.1-3.6-27.1v-25l-3.7-23.8-3.2-4.8-4-8.5-8.1-2.4-7.7-3.6-5.6-6.1-2.8-6v-15.7l-2.4-16.6-4.9-14.1-11.7-9.7-9.2-3.2-9.7-1.2-14.9 1.2-25.5.8h-31.8l-37.2 1.2-37.9 2.6"/><path fill="none" stroke="#333" stroke-linecap="round" stroke-linejoin="round" stroke-width="2" d="M520.3 827.3 534 829l8.9.4 6.4 3.2 2.8-2 4.9.8 5.6-4.5 5.3-1.2 5.2 1.2 3.7 4.1 1.2 2.4 9.6-2 9.7-.8 22.2-11.7 14.9-7.3 4.9-4.4 10-5.7 9.3-4.4 9.3-7.3 9.7-3.6 9.7-2.8 4.8 2.8 7.7 8.9 9.2 5.2 8.9-.8 4.8.8 4.5 1.6 5.3 1.2 8-1.6 12.1 3.3.8 2.8 8.1 8.9 6.4 2 1.2 4 7.3 2 14.9-.8 27.9 2.8 7.7-6 3.9-8.9 3.6-10.5 1.2-10.1-4-2 1.2-8.4 2.8-6.9 8.1-7.3 1.6-7.6-6.4-9.3-4.1-7.2-8.8-6.9-15-3.6-18.1-3.1-4.2-3.6-11.7-.6-.8 5.5-5.2-.4-2.9 13.3-22.3-2.3-7.3.2-6.1-10.6-6 4 2.8 8.1 3.6 18.1-9.7 6.5-8.4 2-7.3-1.2 2.4-4.5 2.9-9.7 4-20.5 2.4-18.6-.1-1.2"/><path fill="none" stroke="#333" stroke-linecap="round" stroke-linejoin="round" stroke-width="2" d="m762.8 702.2-.9 4.2h-12.5l.4 8.4-23.8-3.2-7 1.6"/><path fill="none" stroke="#333" stroke-linecap="round" stroke-linejoin="round" stroke-width="2" d="m872.2 669.6-2.3 4.5-10.1-2-5.6 2-8.1-1.6-3.2-1.6-6 2.4 2 12.9-19 2-10.5 2-9.2 4.1-7.7 5.6.8 2-2.6 3.7-5.9-2.5-5.2.4 2.8-4.4h-13.3l-5.2-1.6-1.1 4.7M872.2 669.6l12.2 3.3 9.7-2.4.4 6.4 4.5-3.6h4.8l3-1.1 1.8 4.7-4.8 1.6 4.8 11.3 4.9-3.2 2.3 2.4M915.8 689l7.3-5.2 4.8.4 3.7 7.2 3.2 4.1v2.4l8.5 3.6 4 2.4.1 5.3M915.8 689l-.4.2zM872.3 669.3l-.1.3M952.4 705.8l7.4 11.1 14.1-3.7 9.3 19 13-5.5 3.1 4.7v4.4l4.5 6.5 4.4 3.9 4.4 1.3-2.8 2-7.7 1.1 3.3 7 5.2 1.2 8.1 4.8 8.4-3.2.4 6 4.5-1.6 7.2 7.7 2.9-.4 3.2 5.6 4.4-2.4 2.4 6.5 6.5 3.6.8 8.5 18.1 8.8 8.9 2.1-5.6 4-3.8 14.6 2.6 4.7-.4 6.5 4.8 2.4 6.9 2v3.3l8.4 2.8 5.7 5.2 11.3 4.1 11.6 2 2.9 4.8M953.3 705.2l-.9.6M947.4 709.3v-.1M947.4 709.2l-.2.2.2-.1M947.4 709.3l5-3.5M1132.4 503.7l-2 3.1-4.5 2-.4 2.8-4.8.4-4.4 2.8-2.5 4.1.8 4.8 5.7 7.3 5.2 5.6-5.6 2 3.2 6.9h-4l.8 7.2-3.2 1.2-4.5-4.4-6.8 4-5.7.8-3.6 4.5-6.1-1.2-1.6 2.8-2.8-2-2.4 3.2-2 4.4-7.3-2-5.2 2-.8 4.1-4.1-1.6-4.8 3.2 1.6 5.2-3.6 1.6-1.7 5.1M1134.4 505.2l-2-1.5M1076.4 651.8l.7-4.3 4.9-7.3-1.6-2.4-6.1-7.2 2-3.3-.8-4.8 4.1-3.2 1.2-5.7 3.2-4.4v-4.4l-5.6-5.3-8.1-3.6-3.2 1.2-4.9-6.9-4.8-1.2.4-3.6-2.5-1.8M1055.3 583.6l-.3 1M1076.4 651.8l-.3.3.2-.2z"/><path fill="none" stroke="#333" stroke-linecap="round" stroke-linejoin="round" stroke-width="2" d="m1130.9 861.3 4.3-2.1 5.2-5.7 1.3-7.2-2.9-26.6-.4-8.5-6.8-7.7 2-10.4-4-4.1-3.3 4.5-5.2 4-2.4-6.5-1.2-6.4 3.2-23-3.2-2.8-1.2-6.1-6.5-.4 1.2-4-3.2-14.1-4-1.6-.9-7.3-2.8-8-3.6-5.7-.4-4-3.2-.4v-4.1l-2.9-2.8.1-3.2 7.6-4 5.7-2.1 7.6.4-4-12.9 4.8 1.3 6.5-3.3 2.4-4.4 1.2-14.9-6-3.3-10.1.4-11.7 2.5-6-10.5-6.5 3.6-5.2 1.9M476.5 308l-5.8 1.6-2.8-1.6-.8-4-4.5.8-4.8 4-3.2-5.2-6.5-7.3-5.2-2-20.9 16.1-4.1 14.1 9.7 22.6-6.4 2"/><path fill="none" stroke="#333" stroke-linecap="round" stroke-linejoin="round" stroke-width="2" d="m421.2 349.1-19.8 4.4-10.9 5.3-17.4 5.6-12.5 8.1-8 4-6.9 5.7-3.6 5.6-12.5 7.3-7.3 4.8-6.8 6.9-6.5 7.6-10.1 5.3-7.6 6.4-7.6 5.7-9.3 10.9-10.5 9.2-7.7 8.1-14.1 12.5.4 4.8-13.3 12.1-7.6 5.7-9.7 4-9.3 6.1-8.5 8.8-13.7 5.3-11.7 3.6-10.1 4.8-19.8 18.2-4.3 6.8-2.1 8.1-7.6 10.1-.8 4.8 1.6 11.3-.8 6.1-2.8 3.6-9.7 4.4-6.9 14.1-6.4 15.4-9.7 10.8 1.2 2.5 8.9.8 10.9-5.3.8 3.7-2.9 2.8-3.6 6-2 6.5 3.2 3.2-5.2 3.6.4 4.1-5.7 1.6-2.4 4.8 4.5 1.6-2.9 3.7v4.8l12.5 17.7 8.5 8.9.4 6.5-6.8-.8-5.3-3.3h-5.2l-4.5 4.9-4.4 10.5-5.2 8.4-.4 10.1.8 6.9-.4 5.6 5.6 25.8 7.3 25-.8 5.7-1.3 4.8 2.5 4.8 3.6 3.7 2.4-.4 7.3 6 9.6 6.5 10.9 1.6 4.5-4.1 2.4-8.8 12.8 2 5.7 4.8-3.2 4.9 1.6 7.6 7.3 4.5 8 14.5-4.4 2 2 13.7 7.3-2 4.8 1.6-9 12.4 30.8-.3 3.6-3.7 12.3.4.1-.1 4.2 3.8-.4 4.4 2.8 3.6 4.4 1.2 4.9 2.9 4 9.2L224 943l2.8.4 7.7-11.7 3.6-1.2 18.1 10.1 3.7-2.8 6 .4 7.7 15.4-.4.4-6.5 2.4 1.6 8 3.8 8.9 3.1.4 2.8 5.2 5.7 2.4-2.1 8.9 4.5 1.2 2.3 5.7-1.5 5.2 1.2 7.3 13.3-2.5 3.2 7.3 5.3 5.2 7.6 2.1 4.1 6.8 6.4-4.8 3.6 4.4 9.7-3.2 8.9 2.4 3.2 2.4h6.1l10-8 3.3 1.6-.8 4.4h6l-4.8 11.7 6-.8 9.8 4.7-1.7 3.8 6 5.6 4.5 2.4 2.3 6.1v.1l11.4 13.2-2 5.2 2 3.2-6.5 2.1-13.7 10.4-.8 4.1h-3.7l.9 8.9 5.6 13.3 4.9 6.8 3.6-3.6 30.2-12.1 20.2-12.9-2.9 16.1 6.1 24.2 10.9-.4 14.1-2.7 3.2-13.4 5.7-11.3-1.7-3.2-8 4-3.2-4.4 8.4-9.3-6-8.9 7.6-4 7.7-8.1-3.2-1.2 2.4-6.4M478 307.6l-1.5.4M494.9 514.8l-6.4-10.9 1.2-2-4.9-6-.4-3.2-6.1-11.1 14.6-8.3h.1l3.9-8.9 9.7-6.8 6-7.7 10.1-14.1 4.4-7.3 3.3-8.8 2.4-8.9.4-6.5-3.6-19.7-5.3-6.5-6.8-4.8-18.2-7.3-11.6-1.6-14.5-4.4-26.2-8.9-17-.8-8.8-1.2M99.8 661.2l-2.4-.8"/><path fill="none" stroke="#333" stroke-linecap="round" stroke-linejoin="round" stroke-width="2" d="m521.9 823.7-43.1-14.4-28.6-10.6-22.6-5.9-6.8-5.4-24.3-14.5-6.8 8.9-8.5 6.8h-10.9l-2-12.5 7.3-6-5.3-4.5-12.9 1.7-16.5-2.9-4.1-6-4.8-9.3-.4-14.1 2.4-9.3-4.4.8-19.4-9.2-5.6-7.3-16.5-4.8-19.7-7.5-.9-3.4.8-7.3 3-10.8 3.5-10.6.8-4.8 2.4-7.3 8.4-13.7 19.8-8 6.1-8.9 4.4-5.2 1-2 20.8 8 3.2-1.2 6-19 1.6-2 42 8.9 7.6-3.2 1.2-15.8 6.5-5.6 6.9-8.5 12.5-8.8 8.8-1.2 8.9-8.5 27.4-17.4 17.8-8 4.3-4.4M493.2 529.1l.1.2M493.2 529.1v-.1M493.2 529l-1.5-2.9 3.2-11.3h0M519.1 830.2l1.2-2.9 1.6-3.6M493.3 1070.9l-2.4-3.3-11.3-5.2-5.2-.4-4.9-3.6 4.1-2.5-1.2-5.2-6.9-3.6 11.7-17v-5.2l3.6-4.9-.8-8.8 3.3-4.9 2.4-5.6 6.8-8.1 3.7-8.8 3.6-10.5 5.6-2.5 3.3-6.4-5.7-2 2.7-7.8-2.3-3.9.8-14.1-13.3-5.6 4.8-24.6 5.7-23.4 3.2-9.3 3.6-14.1-3.6-1.6-2.4 10.9-4.1-.8h-4l-5.6-1.6-.9-8.1 2.7-5.7 5.4.4h10.5l5.6-10M511.8 843.1l7.3-12.9"/><path fill="none" stroke="#333" stroke-linecap="round" stroke-linejoin="round" stroke-width="2" d="m938.9 1121.8-1.2 3.9-4.9 2 .8-7.7-3.6-2.4-9.7 3.3-22.2 10.4-28.2 14.2-17.7 1.1-11.7 2.9-1.6-8.9-4.9-1.1-1.2 7.2-4.8 4-4.9.8-1.2 7.3-6.8 1.2-7.3-3.3-1.2 3.3h-2.8l-.8 2.8 11.3 2.8-.8 3.2-4.5-.8-.4 3.3-5.6-.4-.4-3.7-3.2 2-4.5-6.8-.4 6.1-2.4 6.8 2.8 2.4-1.6 3.6 4 2.5 2.1 6 2.4 1.2-2.9 4.9-10.8-13.4-4.9-8.8-.8-2.8-2.4-.4-.4-3.7 2.8-3.2 2-4.8-2-2.1-3.2 2.9-2.4-.4-2.9-3.7-18.5 5.3-7.6.4-10.5 3.6-10.1 6.1-12.7 10.2-3.1-2.6 6.5-8.5-5.2-1.2-.4-2.8h-6.5l2-4 .4-10.5-10.5.5-7.2-1.7-6.5-.4-.8 6.8-4.4-.4-4.4 12.2-13.7-4.5-4.9 6.9-2.4-.9-.8 2.1-4.4-2.9-2.8 8.1-6.9-3.6-11.3-2-1.6 3.6-6.5-2-7.2-.4-1.3-26.6-.3-26.7-1.3-39.3-14.9-.2-1.6 8.5-8.1 4-5.3 15.8-6-1.3-14.5-10.8h-6.4l-2.2 4-5.1 1.2-4.8-3.2-8.9-3.7 2.9-4-3.7-3.6-5.3-8.1-10.4-9.3-4.8-6.4-10.1-5.7 4.4 7.3-6 8.5-4.9-2.4M1144.6 1028.9l10.4 4 3.6 2.5 18.1-6.5.8-4 6.9 1.6h.3l3-4v-4.9l-5.7-6-.4-5.7-2.4-4.8v-9.2l-5.7-1.7-4.4-4-1.2-6.4-4.5-1.7-1.6 3.3-7.2-1.6-7.7 5.6-6.9 1.2-7.6 4.5-2.8-1.3-4.5 1.3-5.2-8.9-1.2-6.5-2.4-5.2.8-5.7 6 .4 1.2-7.2-1.6-9.7 4.4-2 3.7-.4 2-4 6 .8-2-12.9 6.5-2.5-2.4-2.8 5.2-4.8 2.8-7.3 1.2-6.8-12.5-8.1-6.7-.8.7-7.3 3.2-1.2 8.1-20.1-7.7-3.7-4.3-3.1M1130.9 861.3l-.1-.1"/><path fill="none" stroke="#333" stroke-linecap="round" stroke-linejoin="round" stroke-width="2" d="m1130.8 861.2.1.2v-.1M1031.2 1283.3l1.6 2.9 11.7 2 2.8-3.6 11.7-2.9.4-5.2 10.9-.4v-2.8l12.9-.4v-6.1l-2-4 13.3-5.7 13.3-3.6-17.7-11.7-9.3-9.7v-4.8l-4.9-8.8v-4.9h.4l2.5-8.1 4.4-1.2.8-8.4 9.3 3.6 4.4-17.4-.8-12.1h3.6l.8-6 5.7 4 2-9.2 4-8.5 8.9-8.1 2.4-1.2 2-6.8 5.7-2.1 1.6 2.5 4-3-2-13.6 5.7-2.8-10.5-4-.4-4.5-4.1-4.4-11.3-6.9 5.3-7.6 8.1-4.4-.9-3.3 3.3-5.2 9.6 2 4.9-9.3 4.8-2.4 5.7-10.5-6.9-6.4-4.3-19.4M1144.6 1028.9l-.9-.4M939.3 1120.5l-.4 1.3"/><path fill="none" stroke="#333" stroke-linecap="round" stroke-linejoin="round" stroke-width="2" d="m1031.2 1283.3 3.6-2.8.4-2.5-5.2-5.9-9.3-3.7 4.5-2 .4-5.2-7.3 2.4-2.4-7.7 3.6-6-7.2-6.1-2.5 4.1-8.8 7.2-1.6-14.1-10.5 4.9-4.5-7.7-2-7.7-4.8-4 8-.8-2-9.2-5.6.3-.8-6.8-8.1-.8-2.4-8.9-6.5-9.3-4.8-2 3.6-2-3.6-6v-13.8l-2.8-25.4-13.7-20M1029.6 1284.6l1.6-1.3"/><path fill="#FFF" d="m317.5 615.7-1 1.9-4.4 5.3-6 8.9-19.8 8-8.5 13.7-2.4 7.3-.8 4.9-3.5 10.4-2.9 10.9-.8 7.3.8 3.4 19.7 7.5 16.5 4.8 5.7 7.3 19.3 9.2 4.4-.8-.1.6 3.3-9-1.9-4.6-1-9.1 8.7-14.9 16.8-14.8 9.8-19.9 18.7-30.3v-.1l10.7-16.4-7.7 3.2-41.9-8.9-1.6 2-6.1 19-3.2 1.2zM531 526.5l-14.7 1-9.8 47.9 3.6 14.6.1-.1 5.3-4.2 7.1 2.7 11.4 5.4 5.1 1 23.7-6.7 21.9-1.9 12.3.2.3-.1 4.9-8.4 7.3-28.7 4.6-4.6-3.6-3.4V525l-10.5.3h-32.6zM441.4 635.1l2.6 6.7 2.9 14 3.9 2.2.2 3.7v.1l38.7-1.1 5.4 2.8h.2l.1-.4 5.6-11.6.6-.2 4.2-9.4-.4-1.7 1.4-.4.1-.1 2.1-12.9.9-2.1-1.3-6.4v-.1l.6-.2.9-28-25 7.7-17.2 3.2-25.2 8.4-7.2 15.4z"/><path fill="#FFF" d="m444 662.5-9.5 5-10.2 14.2 39.6 38.8 2.2-1.1 5.3-1.8 7.4 7.2 6.5-3.1c2.3-1.3 4.7-2.7 7.1-4l8.8-7.4 8.7-5.4 3.1-1.1 2.1-3 2.5-6.4.9-2.6 5.9-11.3-1.9-1 .7-2.5h.1l-6.8-2.9-9.4-5.3-11.7-5.7-.1.4-.1.1-.1-.1-5.4-2.8-38.7 1.1zM510.1 590l-.9 28-.6.2v.1l.4-.1-.4.1 1.3 6.4-.9 2.1-2.1 12.9 5-1.3 27.7-7.5 18.3 4.8h.2l.2-11.9.9-7.3 1.7-4.3.5-6.7 1.4-5.7v-11.7l-23.7 6.7-5.1-1-11.4-5.4-7.1-2.7-5.3 4.2z"/><path fill="#FFF" d="m501.6 651.3-.6.2-5.6 11.6 11.7 5.7 9.4 5.3 6.8 2.9 11.1 3.1 7.6 6.9 4.9 6.2 3.8 2.6h.1l2.9-4.5 2.6-6.4 1.1-.2 6.2-17.6h-.1l1.8-5.1-47.9-17.7-5.5-5.9-5 1.3v.1h-.1l-1.4.4.4 1.7z"/><path fill="#FFF" d="m511.9 638.4 5.5 5.9 47.9 17.7v.1l7.6-21.3v-.1l-14.8-5h-.2l-18.3-4.8zM523.3 677h-.1l-.7 2.5 1.9 1-5.9 11.3-.9 2.6-2.5 6.4-2.1 3-3.1 1.1-8.7 5.4-8.8 7.4c-2.4 1.3-4.8 2.7-7.1 4l6.2 4.9 12.8 6.6 27.9 14.3.1-.1 14.3-38.8 4-12.7.1-.1-3.8-2.6-4.9-6.2-7.6-6.9z"/><path fill="#FFF" d="M562.8 588.1v11.7l-1.4 5.7-.5 6.7-1.7 4.3-.9 7.3-.2 11.9 14.8 5v.1l3.4 1.1 19.7 4.9 20.4-10.6 10.4-3.9-.4-.5-16.3-22.4-.1-17.2-2.4-1.8-1.2-3-9.1-1.1v.1h-.3l-12.3-.2z"/><path fill="#FFF" d="m596 646.8-19.7-4.9-3.4-1.1-7.6 21.3v-.1l-1.8 5.1h.1l7.6 2.8 7.9 4 4.3 5.1 7.2 5.4 5.8 2.9 9.7 2.4v-.2l-4-26.5z"/><path fill="#FFF" d="m563.6 667.1-6.2 17.6-1.1.2-2.6 6.4-2.9 4.5-.1.1 5.6 2.7 6.3 4.5 13.5 5.2 12.4 6.5 8.1 9.2.3.3 5.6-5 5.3-20.6-1.7-9-9.7-2.4-5.8-2.9-7.2-5.4-4.3-5.1-7.9-4zM838.7 749.5l-4-7.3-8.9-6.8-14.9-3.6-18.1-3.1-4.3-3.6-11.7-.6-.7 5.5-5.3-.4-2.8 13.3-22.4-2.2-7.3.2-6-10.7-6.1 4 2.8 8 3.7 18.2-9.7 6.4-8.5 2-7.2-1.1-8.2 6.5-11.1 9.7 3.9 2.3 7.7 8.9 9.2 5.2 8.9-.8 4.9.8 4.4 1.6 5.3 1.3 8.1-1.7 12.1 3.3.8 2.8 8 8.9 6.5 2 1.2 4 7.2 2 15-.8 27.8 2.8 7.7-6 3.9-8.9 3.7-10.5 1.2-10.1-4.1-2 1.3-8.4 2.8-6.9 8.1-7.3 1.6-7.6z"/><path fill="#FFF" d="m677.3 717.4-.2-.1-11-1.9-22.7-5.5-10-1-3.9-1-14.8-5.8-4.1-3.3h-2.8v-.1l-5.3 20.6-5.6 5 3.7 4.5 56.3 69 1.6-.7 9.2-7.2 9.7-3.7 9.7-2.8.9.5 11.1-9.7 8.2-6.5 2.4-4.5 2.8-9.7 4-20.5 1.4-10.2z"/><path fill="#FFF" d="m576.1 708.3-13.5-5.2-6.3-4.5-5.6-2.7h-.1l-4 12.7-14.3 38.8 7.2 3.1 5.5 1.8.1.1 11.7 3.9 11 2 22.8-11.2 8-16.4 2-1.9-3.7-4.5v.1l-.3-.4-8.1-9.2z"/><path fill="#FFF" d="m600.6 728.8-2 1.9-8 16.4-22.8 11.2-11-2-11.7-3.9h-.1l-2.2 23.4.4 1.9.2 6.9.5 3.4.4 6.9-.1.2-.6 10.3 2.5 8.2 4.8 7-.8 11.3 1.9-1.3 4.8.8 5.7-4.5 5.2-1.2 5.3 1.2 3.6 4.1 1.2 2.4 9.7-2 9.6-.8 22.2-11.7 15-7.3 4.8-4.4 10.1-5.7 7.7-3.7z"/><path fill="#FFF" d="M545 752.4v-.1l-5.5-1.8-7.2-3.1-.1.1-27.9-14.3-7.3 9.4.8 3.5-2.4-.3-5 3.4-5.9 4.8-34.6 44.7h.1l31.3 11.5 40.5 13.5-1.7 3.6 13.8 1.6 8.8.5 6.4 3.2 1-.7.8-11.3-4.8-7-2.5-8.2.6-10.3v-.2h.1l-.4-6.9-.5-3.4-.2-6.9-.4-1.9z"/><path fill="#FFF" d="m471.4 717.6-5.3 1.8-2.2 1.1-39.6-38.8-6 8.2-17.6 19.3v-.1l-10.5 13-.1.1-30.7 44.8 10.8-1.4 5.2 4.5-7.3 6 2.1 12.5H381l8.5-6.8 6.9-8.9 24.2 14.5 6.8 5.4 22.5 5.9 34.6-44.7 5.9-4.8 5-3.4 2.4.3-.8-3.5 7.3-9.4-12.8-6.6-6.2-4.9-6.5 3.1zM493 529.1v-.1l-4.3 4.4-17.8 8-27.4 17.4-8.8 8.5-8.9 1.1-12.5 8.9-6.9 8.5-6.4 5.6-1.2 15.8 6.7 4.4 30 13.1 7.2-15.4 25.2-8.4 17.2-3.2 25-7.7-3.6-14.6 9.8-47.9z"/><path fill="#FFF" d="m405.5 611.6-6.7-4.4-10.7 16.4v.1L369.4 654l-9.8 19.9-16.8 14.8-8.7 14.9 1 9.1 1.9 4.6-3.3 9-2.3 8.7v7.2l.4 6.9 4.9 9.3 4 6 16.5 2.9 2.2-.3 30.7-44.8.1-.1 10.5-13v.1l17.6-19.3 6-8.2 10.2-14.2 9.5-5 7-.7v-.1l-.2-3.7-3.9-2.2-2.9-14-2.6-6.7-5.9-10.4zM675.8 551.5l-4.8-14.1-11.7-9.7-9.3-3.2-9.7-1.2-14.9 1.2-14.9.5v16.2l3.6 3.4-4.6 4.6-7.3 28.7-4.9 8.4 9.1 1.1 1.2 3 2.4 1.8.1 17.2 16.3 22.4.4.5 7.2-4.7 15.1-6 9.5-1.2 3.7.3 5.8-1.3 9.4-.9 7.9-1.8 17.9-12.8-.9-2-8-2.4-7.7-3.6-5.7-6-2.8-6.1v-15.7zM596 646.8l6.1 16.2 4 26.5v.2l1.7 9v.1h2.8l4.1 3.3 14.8 5.8 3.9 1 10 1 22.7 5.5 11 1.9.2.1.4-2.6-2-9.1-9.2-18.9-4.8-3.9-6.5-2.9-5-16.2-8.7-11.6-1.4-3.5-.6-.8-.1-.1-.2.2.2-.2-12.6-15.5-10.4 3.9z"/><path fill="#FFF" d="m639.4 647.8.1.1.6.8 1.4 3.5 8.7 11.6 5 16.2 6.5 2.9 4.8 3.9 9.2 18.9 2 9.1-.4 2.6 40.6 5.4 1.1-8.4-2.1-23.3-3.6-27.1v-25l-3.6-23.8-3.3-4.8-3.1-6.5-17.9 12.8-7.9 1.8-9.4.9-5.8 1.3-3.7-.3-9.5 1.2-15.1 6-7.2 4.7z"/><path fill="none" stroke="#666" stroke-linecap="round" stroke-linejoin="round" stroke-width=".35" d="m707.3 767.7 2.4-4.5 2.8-9.7 4-20.5 1.4-10.2 1.1-8.4-2.1-23.3-3.6-27.1v-25l-3.6-23.8-3.3-4.8-3.1-6.5-.9-2-8-2.4-7.7-3.6-5.7-6-2.8-6.1v-15.7l-2.4-16.6-4.8-14.1-11.7-9.7-9.3-3.2-9.7-1.2-14.9 1.2-14.9.5-10.5.3h-32.6l-36.4 1.2-14.7 1-23.3 1.6v-.1l-4.3 4.4-17.8 8-27.4 17.4-8.8 8.5-8.9 1.1-12.5 8.9-6.9 8.5-6.4 5.6-1.2 15.8-7.7 3.2-41.9-8.9-1.6 2-6.1 19-3.2 1.2-20.8-8-1 1.9-4.4 5.3-6 8.9-19.8 8-8.5 13.7-2.4 7.3-.8 4.9-3.5 10.4-2.9 10.9-.8 7.3.8 3.4 19.7 7.5 16.5 4.8 5.7 7.3 19.3 9.2 4.4-.8-.1.6-2.3 8.7v7.2l.4 6.9 4.9 9.3 4 6 16.5 2.9 2.2-.3 10.8-1.4 5.2 4.5-7.3 6 2.1 12.5H381l8.5-6.8 6.9-8.9 24.2 14.5 6.8 5.4 22.5 5.9h.1l31.3 11.5 40.5 13.5-1.7 3.6 13.8 1.6 8.8.5 6.4 3.2 1-.7 1.9-1.3 4.8.8 5.7-4.5 5.2-1.2 5.3 1.2 3.6 4.1 1.2 2.4 9.7-2 9.6-.8 22.2-11.7 15-7.3 4.8-4.4 10.1-5.7 7.7-3.7 1.6-.7 9.2-7.2 9.7-3.7 9.7-2.8.9.5"/><path fill="none" stroke="#666" stroke-linecap="round" stroke-linejoin="round" stroke-width=".35" d="m435.5 624.7-30-13.1-6.7-4.4h0l-10.7 16.4v.1L369.4 654l-9.8 19.9-16.8 14.8-8.7 14.9 1 9.1 1.9 4.6-3.3 9M451 661.7l-.2-3.7-3.9-2.2-2.9-14-2.6-6.7-5.9-10.4M451 661.8l-7 .7-9.5 5-10.2 14.2"/><path fill="none" stroke="#666" stroke-linecap="round" stroke-linejoin="round" stroke-width=".35" d="m510.1 590-25 7.7-17.2 3.2-25.2 8.4-7.2 15.4M510.1 590l.1-.1M510.1 590l.1-.1M510.2 589.9l5.3-4.2 7.1 2.7 11.4 5.4h0l5.1 1 23.7-6.7M509 618.2l-.4.1M510.1 590l-.9 28-.6.2v.1M516.3 527.5l-9.8 47.9 3.6 14.6M506.8 639.8l-1.4.4.4 1.7-4.2 9.4-.6.2-5.6 11.6M451 661.7v.1M451 661.8v-.1M495.3 663.5l-.1.1-.1-.1M495.4 663.1l-.1.4M495.3 663.5h-.2M495.1 663.5l-5.4-2.8-38.7 1.1"/><path fill="none" stroke="#666" stroke-linecap="round" stroke-linejoin="round" stroke-width=".35" d="m508.6 618.3 1.3 6.4-.9 2.1-2.1 12.9M506.9 639.7l-.1.1M511.9 638.4l-5 1.3M506.9 639.7v.1h-.1M565.3 662l-47.9-17.7-5.5-5.9M495.4 663.1l11.7 5.7 9.4 5.3 6.8 2.9M523.3 677h-.1l-.7 2.5 1.9 1-5.9 11.3-.9 2.6-2.5 6.4-2.1 3-3.1 1.1-8.7 5.4-8.8 7.4c-2.4 1.3-4.8 2.7-7.1 4M523.3 677l11.1 3.1 7.6 6.9 4.9 6.2 3.8 2.6"/><path fill="none" stroke="#666" stroke-linecap="round" stroke-linejoin="round" stroke-width=".35" d="m557.9 635.7-18.3-4.8-27.7 7.5M597.3 586.3l4.9-8.4 7.3-28.7 4.6-4.6-3.6-3.4V525M562.8 588.1v11.7l-1.4 5.7-.5 6.7-1.7 4.3-.9 7.3-.2 11.9M562.8 588.1l21.9-1.9 12.3.2M597 586.4l.3-.1M597.3 586.3v.1h-.3M626.4 631.8l-16.3-22.4-.1-17.2-2.4-1.8-1.2-3-9.1-1.1M596 646.8l-19.7-4.9-3.4-1.1M557.9 635.7h.2M558.1 635.7l14.8 5v.1M558.1 635.7h-.2M550.8 695.8l2.9-4.5 2.6-6.4 1.1-.2 6.2-17.6M606.1 689.7l-9.7-2.4-5.8-2.9-7.2-5.4-4.3-5.1-7.9-4-7.6-2.8"/><path fill="none" stroke="#666" stroke-linecap="round" stroke-linejoin="round" stroke-width=".35" d="M563.6 667.1h-.1l1.8-5.1M572.9 640.8l-7.6 21.3v-.1M596 646.8l6.1 16.2 4 26.5v.2M639.4 647.8l.1.1.6.8 1.4 3.5 8.7 11.6 5 16.2 6.5 2.9 4.8 3.9 9.2 18.9 2 9.1-.4 2.6M703.3 603.9l-17.9 12.8-7.9 1.8-9.4.9-5.8 1.3-3.7-.3-9.5 1.2-15.1 6-7.2 4.7M626.4 631.8l.4.5M626.8 632.3l-10.4 3.9-20.4 10.6M626.8 632.3l-.4-.5M626.8 632.3l12.6 15.5M639.2 648l.2-.2M688 783.9l3.9 2.3 7.7 8.9 9.2 5.2 8.9-.8 4.9.8 4.4 1.6 5.3 1.3 8.1-1.7 12.1 3.3.8 2.8 8 8.9 6.5 2 1.2 4 7.2 2 15-.8 27.8 2.8 7.7-6 3.9-8.9 3.7-10.5 1.2-10.1-4.1-2 1.3-8.4 2.8-6.9 8.1-7.3 1.6-7.6-6.5-9.3-4-7.3-8.9-6.8-14.9-3.6-18.1-3.1-4.3-3.6-11.7-.6-.7 5.5-5.3-.4-2.8 13.3-22.4-2.2-7.3.2-6-10.7-6.1 4 2.8 8 3.7 18.2-9.7 6.4-8.5 2-7.2-1.1M677.1 717.3l.2.1h0M677.3 717.4l-.2-.1M677.3 717.4l40.6 5.4"/><path fill="none" stroke="#666" stroke-linecap="round" stroke-linejoin="round" stroke-width=".35" d="m688 783.9 11.1-9.7 8.2-6.5M677.1 717.3l-11-1.9-22.7-5.5-10-1-3.9-1-14.8-5.8-4.1-3.3h-2.8M606.1 689.7l1.7 9M607.8 698.8v-.1M607.8 698.8v-.1M607.8 698.7l-5.3 20.6-5.6 5M596.6 724l-8.1-9.2-12.4-6.5-13.5-5.2-6.3-4.5-5.6-2.7M596.6 724l.3.4v-.1M596.9 724.3l3.7 4.5M600.6 728.8l-2 1.9-8 16.4-22.8 11.2-11-2-11.7-3.9M596.9 724.3l-.3-.3M656.9 797.8l-56.3-69M550.7 695.8l-.1.1M550.7 695.9l.1-.1M550.8 695.8h-.1M550.7 695.9h-.1M550.6 695.9l-4 12.7-14.3 38.8M545.1 752.4h-.1M545 752.4v-.1M545.1 752.4l-.1-.1h0M545 752.3l-5.5-1.8-7.2-3.1M532.3 747.4l-.1.1-27.9-14.3M485.3 721.7l-6.5 3.1-7.4-7.2-5.3 1.8-2.2 1.1-39.6-38.8M485.3 721.7"/><path fill="none" stroke="#666" stroke-linecap="round" stroke-linejoin="round" stroke-width=".35" d="m504.3 733.2-7.3 9.4.8 3.5-2.4-.3-5 3.4-5.9 4.8-34.6 44.7M504.3 733.2l-12.8-6.6-6.2-4.9M544.3 794.9l-.4-6.9-.5-3.4-.2-6.9-.4-1.9 2.2-23.4M544.3 794.9h-.1v.2M550.1 831.9l.8-11.3-4.8-7-2.5-8.2.6-10.3M544.2 795.1l.1-.2M424.3 681.7l-6 8.2-17.6 19.3v-.1l-10.5 13-.1.1-30.7 44.8"/><path fill="#FFF" d="M772.9 1251.7v-4.2h-33.2v4.2z"/><path fill="none" stroke="#333" stroke-linecap="round" stroke-linejoin="round" stroke-width=".4" d="M772.9 1247.5h-33.2v4.2h33.2z"/><path fill="#898989" d="M806.1 1251.7v-4.2h-33.2v4.2z"/><path fill="none" stroke="#1B1B1B" stroke-linecap="round" stroke-linejoin="round" stroke-width=".4" d="M806.1 1247.5h-33.2v4.2h33.2z"/><path fill="#FFF" d="M839.4 1251.7v-4.2h-33.2v4.2z"/><path fill="none" stroke="#333" stroke-linecap="round" stroke-linejoin="round" stroke-width=".4" d="M839.4 1247.5h-33.2v4.2h33.2z"/><path fill="#898989" d="M872.6 1251.7v-4.2h-33.2v4.2z"/><path fill="none" stroke="#1B1B1B" stroke-linecap="round" stroke-linejoin="round" stroke-width=".4" d="M872.6 1247.5h-33.2v4.2h33.2z"/><path fill="#FFF" d="M905.9 1251.7v-4.2h-33.2v4.2z"/><path fill="none" stroke="#333" stroke-linecap="round" stroke-linejoin="round" stroke-width=".4" d="M905.9 1247.5h-33.2v4.2h33.2zM905.9 1245.3v2.1M739.6 1245.5v2"/><text font-family="'Arial'" font-size="8.065" transform="translate(737.15 1243.9)">0</text><text font-family="'Arial'" font-size="8.065" transform="translate(901.7 1243.75)">10</text><text fill="#666" font-family="'Arial'" font-size="8.065" transform="translate(908.2 1252.2)">km</text><text font-family="'Corbel'" font-size="8.871" transform="translate(739.6 1268.55)">CARTOGRAPHIE  WWW.COMERSIS.COM</text><path fill="none" stroke="#FFF" stroke-linecap="round" stroke-linejoin="round" d="M.5.5v1754.1h1240.2V.5z"/></svg>